<?xml version="1.0" standalone="no"?><!DOCTYPE svg PUBLIC "-//W3C//DTD SVG 1.1//EN" "http://www.w3.org/Graphics/SVG/1.1/DTD/svg11.dtd"><svg class="icon" width="200px" height="200.00px" viewBox="0 0 1024 1024" version="1.1" xmlns="http://www.w3.org/2000/svg"><path fill="#1296db" d="M499.328 56L481.92 49.152 312 3.84c-32.32-8.448-52.992 3.264-61.504 35.2L48.192 879.808c-8.512 32.768 3.2 53.376 35.584 62.272l169.92 45.312c32.768 8.896 53.44-3.328 61.952-36.032l202.368-840.32c6.912-25.856 0.768-44.096-18.688-55.04z m-82.56 292.48a38.464 38.464 0 0 1-12.096 19.456 18.944 18.944 0 0 1-16.512 4.48h-1.344l-154.112-41.664c-6.016-1.6-10.112-5.568-12.544-12.544a35.456 35.456 0 0 1-1.216-22.272 32.064 32.064 0 0 1 12.16-18.624c5.248-5.248 11.328-6.848 17.408-5.248l154.112 41.664h0.832c1.024 0.32 1.728 1.216 2.688 1.792a21.632 21.632 0 0 1 9.472 11.136 29.696 29.696 0 0 1 2.496 10.368 38.4 38.4 0 0 1-1.216 11.52l-0.128-0.064z m25.984-101.696c-0.192 2.24-0.192 4.352-0.896 6.656a33.28 33.28 0 0 1-7.936 14.08c-1.344 1.536-2.56 3.264-4.224 4.544-1.6 1.472-3.264 2.176-4.992 3.008a16.064 16.064 0 0 1-11.136 2.24h-0.832l-154.112-41.216a21.632 21.632 0 0 1-13.376-13.376 30.912 30.912 0 0 1-1.536-15.488c0.192-2.112 0.192-4.16 0.768-6.4 0.704-2.304 1.792-4.16 2.816-6.208a35.008 35.008 0 0 1 9.344-12.864c5.76-4.864 11.776-6.464 17.792-4.416l154.112 41.28h0.768c3.52 1.28 6.144 4.032 8.384 7.232 1.28 1.664 2.432 3.264 3.392 5.312 1.408 3.456 2.176 7.04 2.304 10.752 0.128 1.6-0.448 3.264-0.64 4.992v-0.128z m287.232-160.512c-3.264 7.68-4.864 16.512-4.864 26.688v871.936c0 10.496 1.6 19.52 4.864 26.752 3.648 7.168 8.128 10.88 13.376 10.88s9.344-3.712 12.864-10.88a57.6 57.6 0 0 0 5.632-26.752V112.96a61.376 61.376 0 0 0-5.632-26.688c-3.584-7.36-7.616-11.008-12.864-11.008s-9.728 3.584-13.376 11.008z m-22.208 26.688c0-10.112-1.536-19.008-4.864-26.688-4.032-7.296-8.512-10.88-13.76-10.88s-9.28 3.584-12.864 10.88a61.568 61.568 0 0 0-5.632 26.688v871.936c0 10.432 1.984 19.52 5.632 26.752 3.712 7.168 7.616 10.88 12.864 10.88s9.728-3.712 13.76-10.88c3.328-7.232 4.864-16.32 4.864-26.752V112.96z m238.72-26.688c-3.264 7.68-4.864 16.512-4.864 26.688v871.936c0 10.496 1.6 19.52 4.864 26.752 3.648 7.168 8 10.88 13.248 10.88 5.376 0 9.344-3.712 12.992-10.88a59.328 59.328 0 0 0 5.504-26.752V112.96a61.376 61.376 0 0 0-5.504-26.688c-3.648-7.36-7.616-11.008-12.992-11.008-5.248 0-9.6 3.584-13.248 11.008z m-22.272 26.688c0-10.112-1.6-19.008-4.992-26.688-4.032-7.296-8.512-10.88-13.632-10.88-5.248 0-9.344 3.584-12.992 10.88a61.568 61.568 0 0 0-5.632 26.688v871.936c0 10.432 1.984 19.52 5.632 26.752 3.648 7.168 7.744 10.88 12.992 10.88 5.12 0 9.536-3.712 13.632-10.88a63.36 63.36 0 0 0 4.992-26.752V112.96z m-296.576-33.216a37.376 37.376 0 0 0-26.752-10.944 37.568 37.568 0 0 0-27.008 10.944 36.608 36.608 0 0 0-10.88 26.688v878.08c0 10.432 3.648 19.392 10.88 26.688a36.672 36.672 0 0 0 27.008 11.328 36.48 36.48 0 0 0 26.752-11.328 36.224 36.224 0 0 0 11.008-26.688V106.432a36.224 36.224 0 0 0-11.008-26.688z m170.752 0a36.48 36.48 0 0 0-10.88 26.688v878.08c0 10.432 3.648 19.392 10.88 26.688a36.48 36.48 0 0 0 26.752 11.328 37.12 37.12 0 0 0 27.136-11.328 36.608 36.608 0 0 0 10.88-26.688V106.432a36.48 36.48 0 0 0-10.88-26.688 38.08 38.08 0 0 0-27.136-10.944 37.312 37.312 0 0 0-26.752 10.944z"  /></svg>