<?xml version="1.0" standalone="no"?><!DOCTYPE svg PUBLIC "-//W3C//DTD SVG 1.1//EN" "http://www.w3.org/Graphics/SVG/1.1/DTD/svg11.dtd"><svg class="icon" width="128px" height="128.00px" viewBox="0 0 1024 1024" version="1.1" xmlns="http://www.w3.org/2000/svg"><path d="M511.99936 0c5.247993 0 10.495987 0.085333 15.74398001 0.256L511.99936 0a517.58868601 517.58868601 0 0 1 33.06662502 1.06666499l1.19466597 0.085334C813.054984 18.77331001 1023.99872 240.767699 1023.99872 511.99936c0 171.690452-84.47989399 323.62626201-214.186399 416.511479l10.367987-7.59465699a513.706025 513.706025 0 0 1-143.957153 76.15990499A507.818032 507.818032 0 0 1 511.99936 1023.99872C229.24771299 1023.99872 0 794.751007 0 511.99936c0-136.533163 53.4186-260.565008 140.50115801-352.340893l3.37066199-3.498662 3.370663-3.413329-6.74132502 6.911991a515.199356 515.199356 0 0 1 139.34915902-104.106536l2.30399699-1.194666A510.036696 510.036696 0 0 1 511.82869399 0H511.99936z m167.12512399 119.29585099l-5.24799299 7.76532401c-31.35996099 48.21327301-43.647945 101.759873-53.6746 121.173181-19.02930999 36.82128699-59.733259 43.98927799-102.91187101 54.48526599-43.13594599 10.495987-57.85592801 148.821147-25.17330198 180.05310802 21.759973 20.821307 8.703989 39.253284-39.253284 55.33859699-54.783932-60.92792401-88.447889-95.658547-100.94920701-104.234536-18.77330999-12.842651-96.511879-54.10126602-107.861199-76.117238s0-95.70121399-14.07998199-135.67983101a50.346604 50.346604 0 0 0-12.67198403-18.51730999A425.04480199 425.04480199 0 0 0 85.333227 511.99936c0 235.64770498 191.018428 426.66613301 426.666133 426.666133 11.775985 0 23.423971-0.46933299 34.943956-1.40799799 7.67998999-45.994609 11.690652-86.14389201 3.62666201-104.02120301-25.34396799-56.149263-47.061275-119.16785101-72.27724301-158.71980199-25.17330201-39.551951 5.205327-59.94659201 60.03192501-120.57584901 54.82659799-60.586591 94.59188201-41.727948 153.47180899 9.301322 58.83726 50.986603 79.7439 15.957313 121.770514 24.831969 24.06397001 5.077327 31.061295 100.86387401 24.746636 198.783751A424.87413599 424.87413599 0 0 0 938.665493 511.99936c0-176.341113-106.96519998-327.67959002-259.54100901-392.70350901zM511.99936 85.333227c-81.91989799 0-159.9998 23.125304-226.90105001 65.194585 11.221319 12.885317 19.669309 27.09329901 25.343969 43.17861299 8.661323 24.533303 11.605319 49.493271 12.58665104 83.88256102 0.17066599 6.44265899 0.256 11.178653 0.38399898 22.399972l0.25599999 15.829314c1.79199801 1.27999801 3.75466199 2.559997 5.802659 3.96799499 4.47999398 2.98666302 9.471988 6.186659 15.018648 9.685321 6.186659 3.83999501 35.242623 21.205307 49.237272 29.909296 12.37331799-66.303917 47.57327399-125.994509 103.423871-139.56249199 3.327996-0.853332 6.82665801-1.66399801 13.14131601-3.15732901 19.541309-4.693327 28.757297-7.381324 34.64529-10.06932099 4.86399399-13.86664899 28.159965-72.021243 44.79994399-101.589207 2.133331-3.83999501 4.35199499-7.637324 6.613326-11.34931898A429.31146299 429.31146299 0 0 0 511.99936 85.333227z m231.167711 785.36435102a951.465477 951.465477 0 0 0 11.98931802-156.71447002c-0.085333-13.525316-0.55466601-26.02663401-1.32266502-37.11995399-40.618616 0.341333-76.79990399-13.48264999-117.930519-49.15193901a277.67432 277.67432 0 0 0-28.58663101-22.44263801 133.333167 133.333167 0 0 0-5.71732599 5.88799202c-6.27199199 6.95465801-26.45329999 28.543964-37.71728599 40.831949 8.959989 16.767979 17.91997799 36.095955 28.15996499 60.330592 4.778661 11.093319 21.503973 51.49860199 20.522641 49.19460499 6.143992 14.71998201 11.050653 26.111967 15.786647 36.607954 14.71998201 32.55462599 16.42664599 64.042587 7.93599 122.19718101a423.67946998 423.67946998 0 0 0 106.879866-49.62127199z" /></svg>