<?xml version="1.0" standalone="no"?><!DOCTYPE svg PUBLIC "-//W3C//DTD SVG 1.1//EN" "http://www.w3.org/Graphics/SVG/1.1/DTD/svg11.dtd"><svg class="icon" width="128px" height="128.00px" viewBox="0 0 1024 1024" version="1.1" xmlns="http://www.w3.org/2000/svg"><path d="M973.30062222 867.59348148L839.55863703 644.64971852V446.464c0-87.13860741-34.10299259-169.30133333-96.24082962-231.31780741-43.93339259-43.93339259-97.93991111-73.78868148-156.55822223-87.62405926v-27.54939258c0-41.26340741-33.49617778-74.75958518-74.75958518-74.7595852s-74.75958518 33.49617778-74.75958518 74.7595852v27.54939258c-58.73967408 13.71401482-112.74619259 43.69066667-156.55822223 87.62405926-62.01647408 62.01647408-96.24082963 144.1792-96.24082962 231.31780741v198.18571852L50.69937778 867.59348148h312.75235555c9.22358518 73.78868148 72.21096297 131.072 148.4269037 131.072s139.32468148-57.28331852 148.42690372-131.072h312.99508147zM493.06737778 100.0941037c0-10.43721482 8.49540741-18.93262222 18.93262222-18.93262222s18.93262222 8.49540741 18.93262222 18.93262222v19.41807408c-6.31087408-0.36408889-12.62174815-0.60681482-18.93262222-0.60681481s-12.62174815 0.24272592-18.93262222 0.60681481v-19.41807408zM240.26832592 660.18417778V446.464c0-149.7618963 121.84841482-271.73167408 271.73167408-271.73167408 149.7618963 0 271.73167408 121.84841482 271.73167408 271.73167408v213.72017778L874.63253333 811.76651852H149.36746667l90.90085925-151.58234074zM512 942.83851852c-45.38974815 0-83.25499259-32.40391111-91.99312592-75.24503704h183.86488889c-8.61677037 42.84112592-46.48201482 75.24503703-91.87176297 75.24503704z" /></svg>