<svg t="1751456102835" class="icon" viewBox="0 0 1024 1024" version="1.1" xmlns="http://www.w3.org/2000/svg" p-id="2953" width="128" height="128"><path d="M958.8966418 133.7841081A54.46776622 54.46776622 0 0 0 908.65676182 80.71064492L641.49034502 62.40479786h-2.8335832a66.70164903 66.70164903 0 0 0-44.66266875 20.23987938L82.86965527 594.26386807a66.20689687 66.20689687 0 0 0-19.79010527 42.72863555c-1.39430303 17.36131904 4.76761641 33.37331309 16.50674707 45.11244375l263.56821592 263.52323877c10.79460263 10.74962549 24.91754151 16.4167919 40.92953467 16.41679101h4.27286426c16.01199404-0.94452803 31.03448291-8.00599658 42.77361269-19.74512725l42.81859072-42.72863555a26.35682168 26.35682168 0 0 0 0-36.65667128 26.35682168 26.35682168 0 0 0-36.65667129 0l-42.77361357 42.72863555c-2.87856035 2.87856035-6.61169443 4.76761641-9.44527764 4.7676164-2.29385302 0-4.27286338-0.449775-5.17241338-1.43928106l-263.47826074-263.47826073c-2.29385302-2.33883018-1.43928018-9.44527763 3.2833582-14.61769102L630.56080918 119.75112441a16.46176904 16.46176904 0 0 1 8.90554746-4.72263837l265.3673168 17.90104922c0.98950518 0 1.84407802 0.98950518 1.84407802 1.84407802l3.32833536 249.89505205a15.69715137 15.69715137 0 0 1-4.72263838 8.90554746l-32.92353809 32.87856094a25.99700185 25.99700185 0 0 0 0 36.65667129c10.34482763 9.89505263 26.31184365 9.89505263 36.65667129 0l32.87856094-32.92353809c11.73913066-11.69415263 18.75562208-26.76161953 19.79010439-42.72863555v-2.33883017l-2.78860517-251.33433311z" p-id="2954"></path><path d="M783.3044375 369.19640146a84.96251894 84.96251894 0 0 0-60.13493261-145.09745068 84.96251894 84.96251894 0 1 0 0 170.01499219c22.93853115 0 44.07796143-8.99550263 60.13493261-24.91754151z m-83.61319307-36.61169414a32.83358291 32.83358291 0 0 1 0-46.95652177 33.41829112 33.41829112 0 0 1 23.47826046-9.89505176c8.90554747 0 17.3163419 3.2833582 23.47826133 9.89505176 6.11694141 6.11694141 9.89505263 14.57271387 9.89505263 23.47826133a31.66416826 31.66416826 0 0 1-9.89505263 23.47826044c-12.27886084 12.14392763-34.31784112 12.14392763-46.95652179 0z m208.56071953 302.96851612h-2.33883017a45.56221875 45.56221875 0 0 1-45.5172416-45.5172416c0-6.56671641 2.87856035-14.57271387 3.7331332-17.3163419a41.78410752 41.78410752 0 0 0-13.58320869-49.83508213l-59.23538173-32.87856094-1.88905606-0.98950517a43.76311875 43.76311875 0 0 0-47.94602696 9.89505264c-7.55622158 7.51124443-25.86206865 21.58920528-37.06146914 21.58920527s-29.64017988-14.61769102-37.06146914-22.03898027a43.76311875 43.76311875 0 0 0-47.94602695-9.89505264l-61.57421279 33.32833593-1.84407803 0.98950518a41.24437822 41.24437822 0 0 0-14.03298369 49.38530713c0.98950518 2.8335832 4.27286338 10.74962549 4.27286338 17.3163419 0 25.36731651-20.64467724 45.5172416-45.51724072 45.5172416h-2.29385303c-16.46176904 0-29.64017988 12.72863584-33.37331397 32.38380791-0.449775 2.8335832-5.17241338 27.75112471-5.17241337 47.36131963 0 20.64467724 4.72263838 46.55172393 5.17241337 47.40629678 3.7331332 19.79010527 16.91154404 32.38380791 33.37331397 32.38380791h2.248875c25.36731651 0 45.56221875 20.5997001 45.56221875 45.5172416 0 6.56671641-2.8335832 14.57271387-4.27286338 17.31634189a41.78410752 41.78410752 0 0 0 13.58320869 49.79010498l58.24587744 32.38380791 1.88905518 0.98950518a40.11993984 40.11993984 0 0 0 16.46176904 3.2833582c12.14392763 0 23.8830583-5.17241338 31.93403291-13.58320869 8.86056943-9.89505263 27.70614667-23.07346347 37.60119932-23.0734626 11.69415263 0 30.49475273 15.47226387 38.05097432 23.47826045a44.43778125 44.43778125 0 0 0 31.9340329 13.62818584 40.47976055 40.47976055 0 0 0 16.46176905-3.2833582l60.08995547-33.37331309 1.88905517-0.98950518a41.24437822 41.24437822 0 0 0 14.03298369-49.34032998 51.94902568 51.94902568 0 0 1-4.27286338-17.36131904c0-25.32233848 20.5997001-45.5172416 45.51724161-45.5172416h2.29385302c16.46176904 0 29.64017988-12.72863584 33.37331309-32.38380791 0-0.449775 5.12743623-26.31184365 5.12743623-47.36131963a267.1664168 267.1664168 0 0 0-5.12743623-47.40629677c-3.19340302-18.75562208-16.37181387-31.79910059-32.83358291-31.79910059z m-98.63568193 232.89355283l-36.20689628 19.79010527a95.71214356 95.71214356 0 0 0-15.47226388-12.77361298c-19.34033028-14.57271387-38.50074932-21.58920528-56.4017994-21.58920528-17.85607207 0-36.61169414 7.01649141-55.9070464 21.13943028a144.24287872 144.24287872 0 0 0-15.06746689 12.72863496l-34.31784023-19.29535225a93.10344785 93.10344785 0 0 0 4.27286337-26.76161865 100.74962549 100.74962549 0 0 0-84.01799091-99.04047979 227.27136445 227.27136445 0 0 1-2.29385303-26.80659668c0-8.41079443 1.39430303-19.29535224 2.29385303-26.76161953a100.79460263 100.79460263 0 0 0 84.01799091-99.04047978c0-9.89505263-1.84407802-19.34033028-4.27286337-26.76161866l37.64617646-20.64467812c3.7331332 3.2833582 8.86056943 8.00599658 15.47226386 12.18890566 18.75562208 13.58320869 37.60119932 20.19490224 54.91754122 20.19490225 17.36131904 0 35.66716612-6.61169443 54.55772138-20.19490225 6.11694141-4.27286338 11.24437763-8.45577246 15.02248888-12.14392763l35.62218896 19.70014922a93.10344785 93.10344785 0 0 0-4.27286426 26.76161953 100.74962549 100.74962549 0 0 0 84.06296895 99.08545693c0.98950518 7.55622158 2.24887588 18.30584707 2.24887588 26.76161953s-1.349325 19.34033028-2.24887588 26.76161953a100.79460263 100.79460263 0 0 0-84.06296895 99.04047979c0.13493232 10.79460263 2.42878536 20.64467724 4.40779658 27.66116865z" p-id="2955"></path><path d="M702.43487246 622.41978974c-51.22938516 0-93.46326855 41.78410752-93.46326855 93.41829141 0 51.27436318 41.82908555 93.46326855 93.46326855 93.46326856 51.22938516 0 93.46326855-41.78410752 93.46326856-93.46326856a94.00299873 94.00299873 0 0 0-93.46326856-93.46326855z m38.50074931 92.87856124c0 21.18440742-17.3163419 38.50074932-38.50074931 38.50074931a38.63568252 38.63568252 0 0 1-38.50074931-38.50074931 38.68065967 38.68065967 0 0 1 38.50074931-38.5007502 38.68065967 38.68065967 0 0 1 38.50074931 38.5007502z" p-id="2956"></path></svg>