<?xml version="1.0" standalone="no"?><!DOCTYPE svg PUBLIC "-//W3C//DTD SVG 1.1//EN" "http://www.w3.org/Graphics/SVG/1.1/DTD/svg11.dtd"><svg class="icon" width="128px" height="128.00px" viewBox="0 0 1024 1024" version="1.1" xmlns="http://www.w3.org/2000/svg"><path d="M515.30714027 938.40877012c-172.15336319 0-277.86050346-25.06145173-323.18957013-76.58002985-23.9388448-27.18530348-22.7555552-52.82322986-21.84533335-60.04432534 0.48545173-6.43223681 16.5660448-202.5851264 30.09801494-294.03211841-4.9152-3.3374816-15.35241493-7.52450348-21.39022187-9.95176319a245.15318507 245.15318507 0 0 1-14.80628159-6.28053333c-19.96420693-9.37528853-61.40965973-29.91597014-61.40965974-29.91597012-51.51857813-23.66577813-82.07170348-53.76379307-89.59620693-88.95905175-6.03780693-28.18654827 4.24770348-52.45914027 15.86820693-65.80906666 1.3956736-1.5777184 2.88237012-3.06441493 4.4600896-4.39940799l242.21013334-206.65078508a42.56805973 42.56805973 0 0 1 68.0542816 18.78091841c26.54814827 78.61285973 103.49226667 90.38506667 147.0312288 90.38506665 11.59016321 0 18.96296321-0.91022187 19.0236448-0.94056319 3.67122986-0.45511147 7.58518507-0.45511147 11.25641493 0.03034133 0 0 7.22109652 0.8798816 18.41682987 0.87988159 42.68942187 0 118.17718507-11.7115264 144.27022186-90.20302292a42.62874027 42.62874027 0 0 1 68.35768854-18.7809184l238.72094827 206.65078506c1.5777184 1.36533333 3.06441493 2.85202988 4.39940799 4.42974827 11.49914027 13.3499264 21.63294827 37.65285973 15.5648 65.74838507-7.52450348 35.01321493-37.65285973 65.05054827-89.5355264 89.20177813 0 0.03034027-39.98909654 20.14625173-59.40717013 29.40017814-4.36906667 2.06317014-9.34494827 4.12634027-14.6242368 6.28053334-5.88610348 2.3969184-16.11093333 6.5536-20.9047712 9.86074026 13.41060693 92.23585173 29.21813333 287.87294827 29.88562986 296.21665173 0.72817813 5.33997014 1.85078507 31.1296-22.27010346 58.46660799-45.14702187 51.30619307-149.36746667 76.21594027-318.63845973 76.21594026z m-259.77742187-133.71164372c7.16041493 8.46506667 52.21641493 48.45416319 259.77742187 48.45416213 205.0427264 0 248.73339307-40.0801184 255.49937813-48.3328-3.18577813-38.3203552-17.47626667-208.2588448-29.06642987-286.5986368-9.70903679-65.68770348 50.69937813-90.23336321 73.42459307-99.45694827 3.64088853-1.48669652 7.09973333-2.85202988 10.10346667-4.27804373 19.11466667-9.10222187 58.77001493-29.06642986 58.83069653-29.0967712 26.09303681-12.19697813 36.77297813-21.9363552 40.96-26.97291841l-187.05066667-161.89819199c-56.31241493 83.40669652-153.97925973 93.66186667-198.4891264 93.66186667-10.5889184 0-19.0236448-0.5764736-24.21191146-1.03158507a272.64189652 272.64189652 0 0 1-24.5153184 1.03158507c-45.14702187 0-144.27022187-10.31585173-201.21979199-94.17765973l-190.38814828 162.4443264c4.3387264 5.06690348 15.04900693 14.62423681 40.35318507 26.24474026 1.21362986 0.5764736 41.44545173 20.57102187 60.8635264 29.67324479 3.06441493 1.42601493 6.58394027 2.82168853 10.28551041 4.30838508 23.02862187 9.22358507 84.16521493 33.70856319 74.30447465 99.638992-11.92391147 79.18933333-26.60882986 252.10121493-29.46085973 286.3862528z" /></svg>