<svg t="1754193042248" class="icon" viewBox="0 0 1024 1024" version="1.1" xmlns="http://www.w3.org/2000/svg" p-id="3355" width="64" height="64"><path d="M93.11328125 528.08398438c-6.328125 0-12.21679688-2.4609375-16.69921875-6.85546876-4.48242188-4.48242188-6.94335938-10.37109375-6.94335938-16.69921874s2.4609375-12.21679688 6.94335938-16.69921876l289.3359375-289.33593749c9.4921875-9.4921875 22.06054688-14.67773438 35.5078125-14.67773438 13.44726563 0 26.10351563 5.18554688 35.5078125 14.67773437l168.83789063 168.92578126L889.2265625 83.88476562c4.48242188-4.48242188 10.37109375-6.94335938 16.69921875-6.94335937 6.328125 0 12.21679688 2.4609375 16.69921875 6.94335938 9.22851563 9.22851563 9.22851563 24.16992188 0 33.3984375L641.19921875 398.53320312c-9.4921875 9.4921875-22.1484375 14.765625-35.5078125 14.76562501-13.44726563 0-26.015625-5.2734375-35.5078125-14.765625L401.16992187 229.60742187 109.63671875 521.22851563c-4.30664063 4.39453125-10.37109375 6.85546875-16.5234375 6.85546874z" p-id="3356"></path><path d="M915.06640625 962c-13.0078125 0-23.5546875-10.546875-23.5546875-23.5546875V525.88671875c0-13.0078125 10.546875-23.5546875 23.5546875-23.5546875s23.5546875 10.546875 23.5546875 23.5546875v412.55859375c0 13.0078125-10.546875 23.5546875-23.5546875 23.5546875z m-255.05859375 0c-13.0078125 0-23.5546875-10.546875-23.5546875-23.5546875V670.81835938c0-13.0078125 10.546875-23.5546875 23.5546875-23.55468751s23.5546875 10.546875 23.5546875 23.5546875v267.62695313c0 13.0078125-10.546875 23.5546875-23.5546875 23.5546875z m-258.3984375 0c-13.0078125 0-23.5546875-10.546875-23.5546875-23.5546875V525.88671875c0-13.0078125 10.546875-23.5546875 23.5546875-23.5546875s23.5546875 10.546875 23.5546875 23.5546875v412.55859375c0 13.0078125-10.546875 23.5546875-23.5546875 23.5546875z m-249.2578125 0C139.34375 962 128.796875 951.453125 128.796875 938.4453125V704.39257813c0-13.0078125 10.546875-23.5546875 23.5546875-23.55468751s23.5546875 10.546875 23.5546875 23.5546875v234.05273438c0 13.0078125-10.546875 23.5546875-23.5546875 23.5546875z m778.62304688-635.9765625c-13.0078125 0-23.5546875-10.546875-23.5546875-23.5546875v-193.359375H706.85351563c-13.0078125 0-23.5546875-10.546875-23.55468751-23.5546875S693.84570313 62 706.85351563 62h224.12109374c13.0078125 0 23.5546875 10.546875 23.55468751 23.5546875v217.08984375c0 12.91992188-10.546875 23.37890625-23.5546875 23.37890625z" p-id="3357"></path></svg>